<svg width="29" height="29" viewBox="0 0 29 29" fill="none" xmlns="http://www.w3.org/2000/svg">
<circle cx="14.5" cy="14.5" r="13.9" stroke="#15285C" stroke-width="1.2"/>
<path d="M14.6291 10.6375C12.7332 10.6375 11.1624 12.1813 11.1624 14.1042C11.1624 16.0271 12.7062 17.5708 14.6291 17.5708C16.552 17.5708 18.0957 16 18.0957 14.1042C18.0957 12.2084 16.5249 10.6375 14.6291 10.6375ZM14.6291 16.325C13.4103 16.325 12.4082 15.3229 12.4082 14.1042C12.4082 12.8854 13.4103 11.8834 14.6291 11.8834C15.8478 11.8834 16.8499 12.8854 16.8499 14.1042C16.8499 15.3229 15.8478 16.325 14.6291 16.325Z" fill="#15285C"/>
<path d="M18.2311 11.3417C18.6649 11.3417 19.0165 10.9901 19.0165 10.5563C19.0165 10.1225 18.6649 9.77087 18.2311 9.77087C17.7973 9.77087 17.4457 10.1225 17.4457 10.5563C17.4457 10.9901 17.7973 11.3417 18.2311 11.3417Z" fill="#15285C"/>
<path d="M20.2624 8.52508C19.5583 7.79384 18.5562 7.41467 17.4187 7.41467L11.8395 7.41467C9.4833 7.41467 7.91248 8.9855 7.91248 11.3417L7.91248 16.8938C7.91248 18.0584 8.29164 19.0604 9.04997 19.7917C9.78122 20.4959 10.7562 20.8479 11.8666 20.8479L17.3916 20.8479C18.5562 20.8479 19.5312 20.4688 20.2353 19.7917C20.9666 19.0875 21.3457 18.0855 21.3457 16.9209L21.3457 11.3417C21.3457 10.2042 20.9666 9.22925 20.2624 8.52508ZM20.1541 16.9209C20.1541 17.7605 19.8562 18.4375 19.3687 18.8979C18.8812 19.3584 18.2041 19.6021 17.3916 19.6021L11.8666 19.6021C11.0541 19.6021 10.377 19.3584 9.88955 18.898C9.40205 18.4105 9.1583 17.7334 9.1583 16.8938L9.1583 11.3417C9.1583 10.5292 9.40205 9.85216 9.88955 9.36466C10.35 8.90425 11.0541 8.6605 11.8666 8.6605L17.4458 8.6605C18.2583 8.6605 18.9353 8.90425 19.4228 9.39175C19.8833 9.87924 20.1541 10.5563 20.1541 11.3417L20.1541 16.9209Z" fill="#15285C"/>
</svg>
