<svg width="113" height="33" viewBox="0 0 113 33" fill="none" xmlns="http://www.w3.org/2000/svg">
<g clip-path="url(#clip0)">
<path d="M86.4 21.93C86.33 21.93 86.25 21.94 86.19 21.96H86.18C86.17 21.96 86.15 21.98 86.14 21.99C86.12 22 86.1 22.01 86.08 22.02C84.96 22.68 83.56 23.33 82.03 23.97C80.5 24.62 78.81 25.24 76.96 25.83C75.11 26.41 73.11 26.95 70.97 27.4C68.83 27.85 66.54 28.22 64.13 28.48C61.72 28.74 59.18 28.88 56.53 28.88C53.88 28.88 51.34 28.73 48.93 28.47C46.52 28.21 44.24 27.84 42.1 27.39C39.96 26.94 37.96 26.4 36.11 25.82C34.26 25.24 32.57 24.61 31.04 23.96C29.52 23.31 28 22.69 26.99 22.01C26.97 21.99 26.93 21.97 26.9 21.96C26.89 21.96 26.89 21.95 26.87 21.95C26.8 21.93 26.73 21.91 26.66 21.91C26.35 21.92 26.11 22.15 26.12 22.44C26.12 22.62 26.22 22.77 26.37 22.86C26.38 22.87 26.38 22.87 26.39 22.87C27.36 23.56 28.93 24.3 30.49 25.12C32.05 25.95 33.8 26.83 35.7 27.68C37.61 28.53 39.67 29.36 41.87 30.09C44.07 30.82 46.41 31.44 48.86 31.88C51.31 32.32 53.87 32.58 56.53 32.58C59.19 32.58 61.76 32.33 64.21 31.89C66.66 31.45 69 30.83 71.2 30.11C73.4 29.39 75.47 28.56 77.37 27.71C79.28 26.86 81.02 25.98 82.58 25.15C84.14 24.32 85.66 23.24 86.68 22.9C86.68 22.9 86.69 22.89 86.7 22.89C86.85 22.8 86.96 22.64 86.96 22.46C86.95 22.18 86.71 21.94 86.4 21.93Z" fill="#15285C"/>
<path d="M112.22 7.15C111.97 6.09 111.51 5 110.71 3.92C109.75 2.62 108.53 1.88 107.31 1.45C106.09 1.02 104.86 0.900004 103.87 0.870004C102.59 0.830004 101.39 0.990004 100.3 1.36C99.21 1.73 98.22 2.3 97.39 3.02C96.42 3.86 95.64 4.92 95.1 6.15C94.82 6.79 94.6 7.48 94.44 8.2C94.28 8.3 94.21 9.53 94.18 10.23C94.12 11.75 94.28 13.21 94.69 14.53C95.1 15.84 95.76 17.02 96.72 17.94C97.52 18.72 98.52 19.35 99.65 19.77C100.78 20.19 102.05 20.42 103.43 20.37C103.67 20.36 103.94 20.35 104.22 20.33C105.08 20.27 106.11 20.12 107.22 19.74C108.7 19.22 110.3 18.28 111.78 16.5C110.17 16.08 109.37 15.88 107.75 15.47C107.41 15.77 107.06 16 106.71 16.19C106.68 16.2 106.65 16.23 106.63 16.24C105.49 16.82 104.32 16.86 103.27 16.8C101.61 16.69 100.43 15.97 99.65 15.01C98.87 14.06 98.47 12.87 98.39 11.85C98.76 11.86 99.11 11.87 99.46 11.88C100.42 11.91 101.24 11.94 102.05 11.97C103.13 12.01 104.21 12.04 105.64 12.1C106.21 12.12 106.79 12.14 107.38 12.17C108.81 12.22 110.35 12.28 112.19 12.36C112.32 11.78 112.48 10.96 112.49 10.24C112.5 9.26 112.47 8.21 112.22 7.15ZM108.47 9.09C108.28 9.08 108.19 9.08 108.01 9.07C106.23 9 104.89 8.95 103.55 8.91C102.21 8.86 100.87 8.82 99.09 8.76C98.87 8.75 98.75 8.75 98.53 8.74C98.58 8.56 98.61 8.47 98.66 8.3C99.02 6.77 99.9 5.75 100.9 5.13C101.9 4.5 103.02 4.27 103.85 4.3C104.95 4.34 106.27 4.78 107.11 5.56C108.27 6.64 108.46 8.05 108.5 8.69C108.47 8.84 108.47 8.92 108.47 9.09Z" fill="#15285C"/>
<path d="M88.91 5.43999C88.9 5.92999 88.89 6.43999 88.87 6.94999C88.84 8.11999 88.83 8.70999 88.8 9.87999C87.96 8.60999 86.92 6.88999 86.1 6.42999C86.1 6.42999 86.09 6.42999 86.09 6.41999C85.56 5.82999 85.02 5.25999 84.49 4.73999C82.88 3.17999 81.09 1.55999 79.84 0.79999C78.39 0.76999 77.68 0.75999 76.23 0.73999C76.21 2.31999 76.18 3.71999 76.16 5.02999C76.16 5.22999 76.15 5.41999 76.15 5.60999C76.14 6.10999 76.13 6.59999 76.13 7.07999C76.13 7.39999 76.12 7.69999 76.12 7.99999C76.11 8.66999 76.1 9.29999 76.09 9.89999C76.07 11.35 76.05 12.69 76.03 14.14C76.01 15.59 75.99 17.13 75.96 18.99C77.66 19.02 78.51 19.03 80.22 19.06C80.27 16.56 80.3 14.69 80.33 12.82C80.36 10.95 80.4 9.06999 80.44 6.57999C81.63 7.55999 82.82 8.71999 83.94 10.01C85.05 11.3 86.08 12.74 86.96 14.29C87.83 15.84 88.54 17.5 89.01 19.25C89.03 19.25 89.05 19.25 89.07 19.25C90.58 19.29 91.33 19.31 92.84 19.35C92.91 16.92 92.96 14.89 93.02 13C93.07 11.11 93.12 9.34999 93.17 7.45999C93.22 5.56999 93.28 3.53999 93.35 1.10999C91.61 1.05999 90.74 1.03999 89.02 0.99999C88.98 2.77999 88.94 4.10999 88.91 5.43999Z" fill="#15285C"/>
<path d="M17.89 8.59C17.61 6.5 16.77 4.94 15.63 3.83C14.26 2.48 12.44 1.74 10.66 1.34C8.89 0.949998 7.13 0.909998 5.88 0.949998C3.19 1.05 0.079999 1.48 -9.53674e-07 1.61C-0.050001 1.69 0.239999 2.58 0.359999 3.95C0.469999 5.32 0.589999 7.44 0.729999 10.83C0.869999 14.24 0.919999 16.42 0.919999 17.83C0.919999 18.03 0.919999 18.22 0.919999 18.39C0.789999 19.26 0.829999 20.09 0.879999 20.15C0.989999 20.3 3.65 20.51 5.91 20.42C7.36 20.36 9.19 20.09 10.98 19.46C12.77 18.83 14.53 17.83 15.84 16.3C17.15 14.77 18.02 12.69 17.99 9.94C17.99 9.48 17.96 8.63 17.89 8.59ZM11.88 15.14C11.67 15.31 11.44 15.48 11.21 15.62C9.66 16.57 7.75 16.85 6.43 16.9C6 16.91 5.54 16.93 5.18 16.88C5.13 15.65 5.11 15.03 5.07 13.8C5.03 12.7 4.99 11.7 4.95 10.7C4.88 8.85 4.81 7 4.72 4.53C5.2 4.51 5.78 4.44 6.34 4.41C7.39 4.35 9.26 4.5 10.86 5.32C12.46 6.14 13.8 7.65 13.88 10.36C13.95 12.65 13.09 14.16 11.88 15.14Z" fill="#15285C"/>
<path d="M55.11 9.7C55.11 11.5 55.61 13.19 56.47 14.64C57.33 16.09 58.56 17.31 60.02 18.16C61.49 19.01 63.19 19.51 65.02 19.52C66.83 19.53 68.54 19.06 70.02 18.22C71.5 17.38 72.74 16.19 73.63 14.75C74.51 13.31 75.04 11.63 75.06 9.83C75.07 9.44 75.04 9.01 74.99 8.58C74.99 8.55 74.98 8.51 74.98 8.48C74.8 6.88 74.3 5.18 73.7 4.8C73.7 4.8 73.69 4.8 73.69 4.79C72.84 3.38 71.64 2.2 70.2 1.37C68.72 0.510004 67 0.0200038 65.16 3.78667e-06C63.31 -0.00999621 61.58 0.460004 60.09 1.3C58.87 1.99 57.82 2.93 57 4.04C56.99 4.04 56.98 4.04 56.97 4.04C56.22 4.42 55.52 6.36 55.25 8.21C55.23 8.34 55.22 8.46 55.2 8.59C55.14 8.97 55.11 9.35 55.11 9.7ZM68.1 4.44C68.45 4.84 70.71 7.21 71.04 9.27C71.05 9.44 71.09 9.61 71.08 9.79C71.06 11.5 70.38 13.04 69.29 14.15C68.2 15.26 66.7 15.94 65.03 15.93C63.37 15.92 61.87 15.22 60.78 14.1C59.7 12.98 59.03 11.43 59.03 9.72C59.03 9.34 59.08 8.97 59.14 8.61C59.16 8.5 59.19 8.4 59.21 8.29C59.27 8.02 59.35 7.76 59.45 7.51C59.48 7.42 59.51 7.33 59.55 7.24C59.69 6.92 59.85 6.61 60.04 6.32C60.1 6.24 60.16 6.15 60.23 6.07C60.26 6.03 60.29 6 60.32 5.96C60.96 5.25 62.01 4.51 62.4 4.25C63.22 3.84 64.12 3.6 65.1 3.6C66.22 3.6 67.23 3.92 68.1 4.44Z" fill="#15285C"/>
<path d="M37.02 5.10002C37.05 6.95002 37.07 8.49002 37.09 9.93002C37.1 10.93 37.12 11.89 37.13 12.87C37.16 14.69 37.18 16.64 37.21 18.97C38.91 18.95 39.76 18.94 41.46 18.92C41.43 16.42 41.41 14.55 41.39 12.67C41.37 10.8 41.35 8.93002 41.32 6.43002C42.53 7.38002 43.75 8.49002 44.89 9.76002C45.28 10.19 45.65 10.66 46.02 11.13C46.73 12.02 47.42 12.95 48.02 13.95C48.94 15.47 49.7 17.12 50.23 18.85C50.24 18.85 50.24 18.85 50.25 18.85C51.76 18.84 52.51 18.84 54.01 18.84C54.01 16.87 54 15.23 54 13.7C54 12.38 53.99 11.13 53.99 9.84002C53.99 8.89002 53.99 7.94002 53.99 6.96002C53.99 5.07002 53.98 3.04002 53.98 0.610016C52.27 0.610016 51.42 0.620016 49.71 0.620016C49.72 2.01002 49.72 3.12002 49.73 4.18002C49.74 6.31002 49.74 7.38002 49.75 9.51002C49.06 8.54002 48.35 7.64002 47.6 6.81002C46.85 5.98002 46.08 5.18002 45.3 4.50002C45.26 4.47002 45.22 4.41002 45.2 4.40002C45.2 4.40002 45.2 4.40002 45.19 4.40002C43.57 2.92002 41.75 1.39002 40.52 0.690016C39.09 0.710016 38.37 0.710016 36.93 0.730016C36.98 2.34002 37 3.77002 37.02 5.10002Z" fill="#15285C"/>
<path d="M31.31 15.08C31.6 16.39 31.8 17.7 31.96 19.06C33.74 19.03 34.63 19.01 36.4 18.99C36.31 18.19 36.2 17.39 36.07 16.58C36.03 16.33 35.97 16.08 35.92 15.82C35.83 15.34 35.75 14.86 35.64 14.38C35.62 14.31 35.6 14.24 35.59 14.17C35.58 14.11 35.57 14.04 35.55 13.97C35.49 13.74 35.42 13.51 35.36 13.28C35.23 12.77 35.1 12.27 34.95 11.77C34.86 11.48 34.76 11.2 34.67 10.91C34.56 10.56 34.45 10.21 34.33 9.87002C33.79 8.41002 32.96 5.95002 32.39 5.67002C32.38 5.66002 32.36 5.66002 32.34 5.66002C32.15 5.32002 31.97 4.97002 31.76 4.64002C30.87 3.25002 29.85 1.98002 28.68 0.860016C27.02 0.890016 26.18 0.910016 24.52 0.950016C23.4 2.11002 22.43 3.43002 21.6 4.86002C21.02 5.85002 20.53 6.91002 20.08 8.00002C20.07 8.01002 20.05 8.02002 20.05 8.02002C19.24 8.71002 18.74 11.69 18.33 13.6C18.31 13.7 18.3 13.8 18.28 13.91C18.25 14.05 18.21 14.2 18.18 14.34C18.08 14.87 18.01 15.39 17.93 15.92C17.89 16.16 17.85 16.4 17.82 16.64C17.7 17.56 17.6 18.47 17.54 19.38C19.25 19.33 20.11 19.31 21.82 19.26C21.93 17.9 22.06 16.58 22.27 15.26C24.09 15.21 25.45 15.18 26.81 15.15C28.13 15.14 29.5 15.11 31.31 15.08ZM23.04 11.88C23.13 11.55 23.25 11.23 23.35 10.9C23.87 9.41002 24.66 7.57002 24.88 7.07002C25.53 5.78002 26.45 4.18002 26.53 4.18002C26.7 4.18002 27.38 5.27002 28 6.37002H27.99C28.21 6.75002 28.42 7.13002 28.63 7.52002C28.67 7.60002 28.72 7.69002 28.76 7.76002C28.78 7.79002 28.79 7.83002 28.81 7.86002C29.08 8.39002 29.33 8.94002 29.56 9.49002C29.62 9.63002 29.68 9.77002 29.73 9.91002C29.97 10.5 30.19 11.1 30.38 11.71C28.91 11.74 27.81 11.76 26.71 11.78C25.61 11.82 24.51 11.84 23.04 11.88Z" fill="#15285C"/>
</g>
<defs>
<clipPath id="clip0">
<rect width="112.49" height="32.59" fill="white"/>
</clipPath>
</defs>
</svg>
